<?xml version="1.0" encoding="utf-8"?>
<!-- Generator: Adobe Illustrator 25.0.1, SVG Export Plug-In . SVG Version: 6.00 Build 0)  -->
<svg version="1.1" id="Layer_1" xmlns="http://www.w3.org/2000/svg" xmlns:xlink="http://www.w3.org/1999/xlink" x="0px" y="0px"
	 viewBox="0 0 50 50" style="enable-background:new 0 0 50 50;" xml:space="preserve">
<style type="text/css">
	.st0{fill:#FFFFFF;}
</style>
<g>
	<path class="st0" d="M20,5.4l5.8,39.1H15.4l-0.5-7h-3.6l-0.6,7H0.1L5.3,5.4H20z M14.6,30.6c-0.5-4.4-1-9.9-1.5-16.4
		c-1,7.5-1.7,13-2,16.4H14.6z"/>
	<path class="st0" d="M49.1,17.3h-9.4v-2.9c0-1.4-0.1-2.2-0.4-2.6c-0.2-0.4-0.6-0.6-1.2-0.6c-0.6,0-1.1,0.2-1.4,0.7
		c-0.3,0.5-0.5,1.3-0.5,2.3c0,1.3,0.2,2.3,0.5,2.9c0.3,0.7,1.3,1.5,2.9,2.4c4.5,2.7,7.4,4.9,8.6,6.6s1.8,4.5,1.8,8.3
		c0,2.8-0.3,4.8-1,6.2S47,43.1,45.1,44s-4,1.3-6.5,1.3c-2.7,0-5-0.5-7-1.5s-3.2-2.3-3.8-3.9S27,36,27,33.1v-2.6h9.4v4.8
		c0,1.5,0.1,2.4,0.4,2.8c0.3,0.4,0.7,0.6,1.4,0.6s1.2-0.3,1.5-0.8c0.3-0.5,0.5-1.3,0.5-2.4c0-2.3-0.3-3.8-0.9-4.5
		c-0.6-0.7-2.2-1.9-4.8-3.6c-2.5-1.7-4.2-2.9-5-3.6c-0.8-0.8-1.5-1.8-2-3.1s-0.8-3-0.8-5.1c0-3,0.4-5.2,1.1-6.6s2-2.5,3.7-3.2
		s3.8-1.2,6.2-1.2c2.6,0,4.9,0.4,6.8,1.3c1.9,0.9,3.1,1.9,3.7,3.2c0.6,1.3,0.9,3.5,0.9,6.6V17.3z"/>
</g>
</svg>
