<?xml version="1.0" encoding="utf-8"?>
<!-- Generator: Adobe Illustrator 25.2.1, SVG Export Plug-In . SVG Version: 6.00 Build 0)  -->
<svg version="1.1" id="Layer_1" xmlns="http://www.w3.org/2000/svg" xmlns:xlink="http://www.w3.org/1999/xlink" x="0px" y="0px"
	 viewBox="0 0 50 50" style="enable-background:new 0 0 50 50;" xml:space="preserve">
<style type="text/css">
	.st0{fill:#2C363A;}
	.st1{fill:#FFFFFF;}
</style>
<path class="st0" d="M46.3,50H3.7C1.7,50,0,48.3,0,46.3V3.7C0,1.7,1.7,0,3.7,0h42.6C48.3,0,50,1.7,50,3.7v42.6
	C50,48.3,48.3,50,46.3,50z"/>
<g>
	<path class="st1" d="M20.9,8.6l4.9,33H17l-0.4-7h-3l-0.5,7h-9l4.4-33H20.9z M16.3,29.6c-0.4-3.7-0.8-8.3-1.3-13.7
		c-0.8,6.3-1.4,10.9-1.7,13.7H16.3z"/>
	<path class="st1" d="M45,18.6h-8v-2.4c0-1.2-0.1-1.8-0.3-2.2c-0.2-0.3-0.5-0.5-1-0.5c-0.5,0-1,0.2-1.2,0.6C34.1,14.5,34,15.2,34,16
		c0,1.1,0.2,1.9,0.4,2.4c0.3,0.6,1.1,1.2,2.5,2c3.9,2.2,6.4,4.1,7.4,5.5c1,1.4,1.6,3.8,1.6,6.9c0,2.3-0.3,4-0.9,5.2
		s-1.7,2.1-3.4,2.8C40,41.6,38.2,42,36,42c-2.3,0-4.3-0.4-6.1-1.2c-1.7-0.8-2.8-1.9-3.3-3.2S26,34.2,26,31.8v-2.2h8v4
		c0,1.2,0.1,2,0.3,2.3c0.3,0.3,0.6,0.5,1.2,0.5c0.6,0,1-0.2,1.3-0.7s0.4-1.1,0.4-2c0-1.9-0.3-3.2-0.8-3.8c-0.5-0.6-1.9-1.6-4.2-3
		c-2.2-1.4-3.6-2.4-4.3-3c-0.7-0.7-1.3-1.5-1.7-2.6c-0.4-1.1-0.7-2.5-0.7-4.3c0-2.5,0.3-4.3,1-5.5c0.6-1.2,1.7-2.1,3.2-2.7
		c1.5-0.6,3.3-1,5.4-1c2.3,0,4.2,0.3,5.9,1.1c1.6,0.8,2.7,1.6,3.2,2.7c0.5,1.1,0.8,2.9,0.8,5.5C45,17.3,45,18.6,45,18.6z"/>
</g>
</svg>
