<svg width="50" height="50" viewBox="0 0 50 50" fill="none" xmlns="http://www.w3.org/2000/svg">
<path d="M46.3 50H3.7C1.7 50 0 48.3 0 46.3V3.7C0 1.7 1.7 0 3.7 0H46.3C48.3 0 50 1.7 50 3.7V46.3C50 48.3 48.3 50 46.3 50Z" fill="#2C363A"/>
<path d="M20.9 8.59998L25.8 41.6H17L16.6 34.6H13.6L13.1 41.6H4.09998L8.49998 8.59998H20.9ZM16.3 29.6C15.9 25.9 15.5 21.3 15 15.9C14.2 22.2 13.6 26.8 13.3 29.6H16.3Z" fill="white"/>
<path d="M45 18.6H37V16.2C37 15 36.9 14.4 36.7 14C36.5 13.7 36.2 13.5 35.7 13.5C35.2 13.5 34.7 13.7 34.5 14.1C34.1 14.5 34 15.2 34 16C34 17.1 34.2 17.9 34.4 18.4C34.7 19 35.5 19.6 36.9 20.4C40.8 22.6 43.3 24.5 44.3 25.9C45.3 27.3 45.9 29.7 45.9 32.8C45.9 35.1 45.6 36.8 45 38C44.4 39.2 43.3 40.1 41.6 40.8C40 41.6 38.2 42 36 42C33.7 42 31.7 41.6 29.9 40.8C28.2 40 27.1 38.9 26.6 37.6C26.1 36.3 26 34.2 26 31.8V29.6H34V33.6C34 34.8 34.1 35.6 34.3 35.9C34.6 36.2 34.9 36.4 35.5 36.4C36.1 36.4 36.5 36.2 36.8 35.7C37.1 35.2 37.2 34.6 37.2 33.7C37.2 31.8 36.9 30.5 36.4 29.9C35.9 29.3 34.5 28.3 32.2 26.9C30 25.5 28.6 24.5 27.9 23.9C27.2 23.2 26.6 22.4 26.2 21.3C25.8 20.2 25.5 18.8 25.5 17C25.5 14.5 25.8 12.7 26.5 11.5C27.1 10.3 28.2 9.39999 29.7 8.79999C31.2 8.19999 33 7.79999 35.1 7.79999C37.4 7.79999 39.3 8.09999 41 8.89999C42.6 9.69999 43.7 10.5 44.2 11.6C44.7 12.7 45 14.5 45 17.1C45 17.3 45 18.6 45 18.6Z" fill="white"/>
<circle cx="40" cy="40" r="10" fill="#2C363A"/>
<circle cx="40" cy="40" r="8" fill="#10B75E"/>
</svg>
